<svg xmlns="http://www.w3.org/2000/svg" xmlns:xlink="http://www.w3.org/1999/xlink" viewBox="0 0 32 32"><defs><style>.cls-1{fill:url(#linear-gradient);}</style><linearGradient id="linear-gradient" x1="35.088" y1="16" x2="-2.2" y2="16" gradientUnits="userSpaceOnUse"><stop offset="0" stop-color="#c76ec4"/><stop offset="1" stop-color="#396ce8"/></linearGradient></defs><g id="Layer_2" data-name="Layer 2"><g id="Layer_1-2" data-name="Layer 1"><path class="cls-1" d="M16.034,32a.844.844,0,0,1-.811-.611L13.908,26.8a12.566,12.566,0,0,0-8.694-8.675L.613,16.81a.842.842,0,0,1,0-1.62l4.6-1.312A12.567,12.567,0,0,0,13.908,5.2L15.223.611a.844.844,0,0,1,1.623,0L18.161,5.2a12.566,12.566,0,0,0,8.694,8.675l4.6,1.312a.875.875,0,0,1,0,1.62l-4.6,1.312A12.567,12.567,0,0,0,18.161,26.8l-1.315,4.592A.844.844,0,0,1,16.034,32ZM5.055,31.817l.4-1.378a3.772,3.772,0,0,1,2.609-2.6l1.381-.393a.264.264,0,0,0,0-.487l-1.381-.393a3.773,3.773,0,0,1-2.609-2.6l-.4-1.378a.254.254,0,0,0-.487,0l-.394,1.378a3.775,3.775,0,0,1-2.609,2.6l-1.381.393a.253.253,0,0,0,0,.487l1.381.393a3.773,3.773,0,0,1,2.609,2.6l.394,1.378a.254.254,0,0,0,.487,0ZM28.975,6.266l.262-.917a2.511,2.511,0,0,1,1.736-1.731l.919-.262a.176.176,0,0,0,0-.324l-.919-.262a2.511,2.511,0,0,1-1.736-1.731L28.975.122a.169.169,0,0,0-.324,0l-.262.917A2.511,2.511,0,0,1,26.653,2.77l-.919.262a.169.169,0,0,0,0,.324l.919.262a2.511,2.511,0,0,1,1.736,1.731l.262.917a.169.169,0,0,0,.324,0Z"/></g></g></svg>