<svg width="24" height="24" viewBox="0 0 24 24" fill="none" xmlns="http://www.w3.org/2000/svg">
<path d="M8.91998 2.49001C9.88998 2.17001 10.92 2 12 2C14.58 2 16.93 2.99001 18.71 4.60001C17.1 6.13001 15.24 7.37001 13.2 8.32001C12.03 6.20001 10.6 4.24001 8.91998 2.49001V2.49001ZM11.81 8.91C10.66 6.86 9.27 4.96999 7.62 3.28999C7.56 3.22999 7.52999 3.16 7.48999 3.09C4.77999 4.46 2.78001 7.03 2.20001 10.11C5.61001 10.49 8.77999 10.05 11.8 8.91H11.81ZM13.89 9.64999C14.19 10.27 14.47 10.89 14.72 11.52C17.14 11.07 19.65 11.21 22 11.94C21.99 9.56 21.14 7.39 19.74 5.69C18.03 7.32 16.06 8.63999 13.89 9.64999ZM13.25 11.88C13.03 11.33 12.78 10.78 12.51 10.24C9.94001 11.23 7.26 11.75 4.5 11.75C3.69 11.75 2.86002 11.7 2.02002 11.61C2.02002 11.74 2 11.87 2 12C2 14.52 2.93998 16.82 4.47998 18.58C6.45998 15.32 9.61 12.93 13.25 11.88V11.88ZM21.74 13.43C19.66 12.75 17.41 12.59 15.24 12.95C16.1 15.47 16.6 18.11 16.71 20.8C19.45 19.33 21.41 16.64 21.87 13.44C21.83 13.44 21.78 13.44 21.74 13.42V13.43ZM15.23 21.2C15.16 18.49 14.66 15.84 13.77 13.3C10.39 14.25 7.45002 16.48 5.65002 19.54C5.62002 19.58 5.57998 19.61 5.53998 19.64C7.27998 21.12 9.52999 22.02 11.99 22.02C13.15 22.02 14.25 21.82 15.28 21.45C15.25 21.37 15.23 21.29 15.22 21.2H15.23Z" fill="#25314C"/>
</svg>
