<svg width="18" height="18" viewBox="0 0 18 18" fill="none" xmlns="http://www.w3.org/2000/svg">
<path d="M1.30005 10.5H8.25V17.7C8.25 17.866 8.11595 18 7.94995 18H4C2 18 1 17 1 15V10.8C1 10.634 1.13405 10.5 1.30005 10.5ZM16.7 10.5H9.75V17.7C9.75 17.866 9.88405 18 10.05 18H14C16 18 17 17 17 15V10.8C17 10.634 16.866 10.5 16.7 10.5ZM18 5.49997V8.69998C18 8.86598 17.866 8.99997 17.7 8.99997H9.75V5.49997H8.25V8.99997H0.300049C0.134049 8.99997 0 8.86598 0 8.69998V5.49997C0 4.67197 0.672 3.99997 1.5 3.99997H2.56494C2.24594 3.38197 2.12701 2.64497 2.41101 1.84397C2.69401 1.04597 3.33995 0.38499 4.14795 0.13199C5.26595 -0.21801 6.416 0.147962 7.12 1.00296C7.152 1.04196 8.27698 2.53895 9.00098 3.50095C9.72398 2.53895 10.848 1.04496 10.875 1.01096C11.584 0.148958 12.724 -0.214052 13.839 0.125948C14.619 0.364948 15.253 0.982976 15.553 1.74198C15.885 2.58198 15.769 3.35499 15.437 3.99899H16.502C17.328 3.99999 18 4.67197 18 5.49997ZM7.49805 3.99997C6.82105 3.09997 6.003 2.01195 5.948 1.94095C5.719 1.66195 5.378 1.49997 5 1.49997C4.311 1.49997 3.75 2.06097 3.75 2.74997C3.75 3.43897 4.311 3.99997 5 3.99997H7.49805ZM14.25 2.74997C14.25 2.06097 13.689 1.49997 13 1.49997C12.622 1.49997 12.2809 1.66194 12.0389 1.95694C11.9919 2.01894 11.177 3.10197 10.502 3.99997H13C13.689 3.99997 14.25 3.43897 14.25 2.74997Z" fill="#25314C"/>
</svg>
