<svg width="24" height="24" viewBox="0 0 24 24" fill="none" xmlns="http://www.w3.org/2000/svg">
<path d="M12.02 21C11.81 21 11.62 20.86 11.56 20.66L10.82 18.08C10.15 15.71 8.29996 13.87 5.92996 13.2L3.33999 12.46C3.08999 12.39 2.93998 12.13 3.00998 11.88C3.04998 11.72 3.17999 11.6 3.33999 11.55L5.92996 10.81C8.29996 10.14 10.15 8.29999 10.82 5.92999L11.56 3.35C11.63 3.1 11.89 2.95 12.15 3.02C12.31 3.07 12.4299 3.19 12.4799 3.35L13.2199 5.92999C13.8899 8.29999 15.74 10.14 18.11 10.81L20.7 11.55C20.95 11.65 21.0699 11.94 20.9699 12.19C20.9199 12.31 20.82 12.41 20.7 12.46L18.11 13.2C15.74 13.87 13.8899 15.72 13.2199 18.08L12.4799 20.66C12.4199 20.86 12.23 21 12.02 21ZM5.83999 20.9L6.06997 20.12C6.26997 19.41 6.82995 18.86 7.53995 18.66L8.31997 18.44C8.39997 18.41 8.42999 18.32 8.39999 18.25C8.37999 18.21 8.35997 18.19 8.31997 18.17L7.53995 17.95C6.82995 17.75 6.26997 17.2 6.06997 16.49L5.83999 15.71C5.81999 15.63 5.73994 15.59 5.65994 15.61C5.60994 15.62 5.57996 15.66 5.55996 15.71L5.33999 16.49C5.13999 17.2 4.57996 17.75 3.86996 17.95L3.08999 18.17C3.00999 18.19 2.96996 18.27 2.98996 18.35C2.99996 18.4 3.03999 18.43 3.08999 18.45L3.86996 18.67C4.57996 18.87 5.13999 19.42 5.33999 20.13L5.55996 20.91C5.57996 20.99 5.65996 21.03 5.73996 21.01C5.78996 21 5.81999 20.96 5.83999 20.91V20.9ZM19.3 6.52999L19.45 6.00999C19.58 5.53999 19.95 5.16999 20.43 5.03999L20.95 4.88999C21 4.86999 21.02 4.80999 21 4.75999C20.99 4.73999 20.97 4.72 20.95 4.71L20.43 4.55999C19.96 4.42999 19.59 4.05999 19.45 3.58999L19.3 3.07C19.29 3.02 19.23 2.98999 19.18 3.00999C19.15 3.00999 19.13 3.04 19.12 3.07L18.9699 3.58999C18.8399 4.05999 18.47 4.42999 17.99 4.55999L17.4699 4.71C17.4199 4.72 17.3899 4.78 17.4099 4.83C17.4099 4.86 17.4399 4.87999 17.4699 4.88999L17.99 5.03999C18.46 5.16999 18.8299 5.53999 18.9699 6.00999L19.12 6.52999C19.13 6.57999 19.19 6.60999 19.24 6.58999C19.27 6.58999 19.29 6.55999 19.3 6.52999Z" fill="#F8F9FB"/>
</svg>
