<svg width="24" height="24" viewBox="0 0 24 24" fill="none" xmlns="http://www.w3.org/2000/svg">
<path d="M20.94 8.29C20.87 6.85 20.54 5.57001 19.49 4.52001C18.44 3.47001 17.16 3.14001 15.72 3.07001C14.23 2.99001 9.77999 2.99001 8.29999 3.07001C6.85999 3.14001 5.59 3.47001 4.53 4.52001C3.47 5.57001 3.14999 6.85 3.07999 8.29C2.99999 9.78 2.99999 14.23 3.07999 15.72C3.14999 17.16 3.48 18.44 4.53 19.49C5.59 20.54 6.85999 20.87 8.29999 20.94C9.78999 21.02 14.24 21.02 15.72 20.94C17.16 20.87 18.44 20.54 19.49 19.49C20.54 18.44 20.87 17.16 20.94 15.72C21.02 14.23 21.02 9.78001 20.94 8.30001V8.29ZM12 16.75C9.38 16.75 7.25 14.62 7.25 12C7.25 9.38 9.38 7.25 12 7.25C14.62 7.25 16.75 9.38 16.75 12C16.75 14.62 14.62 16.75 12 16.75ZM17.52 7.5C16.97 7.5 16.52 7.05 16.52 6.5C16.52 5.95 16.96 5.5 17.52 5.5C18.07 5.5 18.52 5.95 18.52 6.5C18.52 7.05 18.07 7.5 17.52 7.5ZM15.25 12C15.25 13.79 13.79 15.25 12 15.25C10.21 15.25 8.75 13.79 8.75 12C8.75 10.21 10.21 8.75 12 8.75C13.79 8.75 15.25 10.21 15.25 12Z" fill="#25314C"/>
</svg>
