<svg width="24" height="24" viewBox="0 0 24 24" fill="none" xmlns="http://www.w3.org/2000/svg">
<path d="M12.0009 2.5C6.76392 2.5 2.50287 6.76102 2.50287 11.999C2.50287 13.363 2.80605 14.736 3.38105 15.974C3.52505 16.274 3.53589 16.648 3.41889 17.019L2.57782 19.52C2.39682 20.062 2.53803 20.651 2.94403 21.057C3.23203 21.346 3.61383 21.5 4.00483 21.5C4.16383 21.5 4.32388 21.474 4.48188 21.422L6.97504 20.585C7.35204 20.464 7.72593 20.477 8.03193 20.622C9.26493 21.195 10.6379 21.498 12.0019 21.498C17.2389 21.498 21.5009 17.237 21.5009 11.999C21.5009 6.76102 17.2379 2.5 12.0009 2.5ZM12.0009 20.498C10.7819 20.498 9.55595 20.227 8.45795 19.717C7.92695 19.463 7.29203 19.433 6.66303 19.634L4.16401 20.473C3.98101 20.533 3.78982 20.487 3.65082 20.349C3.51182 20.211 3.46482 20.018 3.52582 19.837L4.36884 17.33C4.56584 16.708 4.53585 16.074 4.28485 15.548C3.77285 14.445 3.50287 13.218 3.50287 11.999C3.50287 7.31302 7.31492 3.5 12.0009 3.5C16.6879 3.5 20.4999 7.31202 20.4999 11.999C20.4999 16.686 16.6879 20.498 12.0009 20.498ZM12.7499 12C12.7499 12.414 12.4158 12.75 12.0038 12.75C11.5928 12.75 11.2499 12.414 11.2499 12C11.2499 11.586 11.577 11.25 11.989 11.25H12.0038C12.4158 11.25 12.7499 11.586 12.7499 12ZM16.7499 12C16.7499 12.414 16.4158 12.75 16.0038 12.75C15.5928 12.75 15.2499 12.414 15.2499 12C15.2499 11.586 15.577 11.25 15.989 11.25H16.0038C16.4158 11.25 16.7499 11.586 16.7499 12ZM8.74994 12C8.74994 12.414 8.41585 12.75 8.00385 12.75C7.59285 12.75 7.24994 12.414 7.24994 12C7.24994 11.586 7.57696 11.25 7.98896 11.25H8.00385C8.41585 11.25 8.74994 11.586 8.74994 12Z" fill="#F8F9FB"/>
</svg>
