<svg width="180" height="63" viewBox="0 0 180 63" fill="none" xmlns="http://www.w3.org/2000/svg">
<g clip-path="url(#clip0_2_3196)">
<path d="M33.773 34.2993H38.165V35.71C38.7685 35.1348 39.4794 34.6844 40.2568 34.3847C41.0343 34.085 41.8632 33.9418 42.696 33.9633C43.6565 33.929 44.6103 34.1353 45.4712 34.5634C46.332 34.9916 47.0726 35.6281 47.6258 36.4153C48.2601 35.6249 49.0685 34.9922 49.9875 34.5668C50.9066 34.1414 51.9115 33.9349 52.9236 33.9633C56.5113 33.9633 59.2948 36.3483 59.2948 40.2449V50.5226H54.9028V40.9502C54.8783 40.1469 54.5426 39.3848 53.9666 38.8253C53.3907 38.2658 52.62 37.9529 51.8176 37.9529C51.0153 37.9529 50.2446 38.2658 49.6687 38.8253C49.0927 39.3848 48.757 40.1469 48.7324 40.9502V50.5226H44.3404V40.9502C44.3563 40.5447 44.2865 40.1404 44.1357 39.7637C43.9849 39.387 43.7565 39.0464 43.4653 38.7642C43.1741 38.482 42.8267 38.2645 42.4459 38.126C42.0651 37.9874 41.6594 37.9309 41.2552 37.9601C40.8511 37.9309 40.4454 37.9874 40.0646 38.126C39.6838 38.2645 39.3364 38.482 39.0452 38.7642C38.754 39.0464 38.5256 39.387 38.3748 39.7637C38.224 40.1404 38.1542 40.5447 38.17 40.9502V50.5226H33.7781L33.773 34.2993Z" fill="#25314C"/>
<path d="M62.3743 42.4279C62.3743 37.6248 65.7273 33.9633 70.12 33.9633C70.9943 33.9401 71.8641 34.0949 72.677 34.4182C73.4898 34.7415 74.2287 35.2266 74.849 35.8441V34.2993H79.2079V50.5262H74.849V48.9771C74.2336 49.5917 73.5004 50.0752 72.6935 50.3985C71.8865 50.7217 71.0227 50.878 70.1539 50.858C65.7273 50.858 62.3743 47.2304 62.3743 42.4279ZM75.0837 42.3947C75.0837 39.841 73.4068 38.0272 70.9588 38.0272C68.544 38.0272 66.8678 39.841 66.8678 42.3947C66.8678 44.9802 68.544 46.794 70.9588 46.794C73.4068 46.794 75.0837 44.9802 75.0837 42.3947Z" fill="#25314C"/>
<path d="M82.2902 41.9909C82.2902 37.456 85.5425 33.9633 89.9359 33.9633C91.6427 33.9064 93.3039 34.5216 94.5633 35.6768V34.2994H98.9222V49.6824C98.9222 54.5195 95.3006 57.7101 90.1382 57.7101C86.6822 57.7101 84.0017 56.4335 82.4256 54.1834L85.2091 51.396C85.7786 52.1463 86.5221 52.7463 87.3752 53.1442C88.2282 53.542 89.1652 53.7257 90.1051 53.6793C92.8217 53.6793 94.5324 52.2369 94.5324 49.7495V48.4066C93.2751 49.54 91.6286 50.1419 89.9381 50.0863C85.5425 50.0863 82.2902 46.5892 82.2902 41.9909ZM94.7981 42.0241C94.8326 41.4871 94.7536 40.9489 94.5662 40.4447C94.3789 39.9404 94.0873 39.4815 93.7106 39.0979C93.334 38.7143 92.8807 38.4147 92.3805 38.2186C91.8803 38.0225 91.3444 37.9345 90.8078 37.9601C89.7316 37.9601 88.6994 38.3884 87.9384 39.1506C87.1774 39.9129 86.7499 40.9468 86.7499 42.0248C86.7499 43.1028 87.1774 44.1367 87.9384 44.8989C88.6994 45.6612 89.7316 46.0894 90.8078 46.0894C91.3444 46.1146 91.8801 46.0261 92.3802 45.8297C92.8803 45.6334 93.3334 45.3336 93.7099 44.9499C94.0865 44.5663 94.378 44.1074 94.5655 43.6033C94.753 43.0991 94.8323 42.561 94.7981 42.0241Z" fill="#25314C"/>
<path d="M102.005 29.1601C102.012 28.67 102.163 28.1927 102.44 27.7884C102.717 27.384 103.107 27.0707 103.561 26.8877C104.015 26.7047 104.513 26.6603 104.992 26.76C105.471 26.8598 105.91 27.0992 106.254 27.4481C106.597 27.7971 106.83 28.2401 106.923 28.7214C107.016 29.2027 106.965 29.7008 106.777 30.153C106.588 30.6053 106.27 30.9916 105.862 31.2633C105.455 31.535 104.977 31.6799 104.487 31.68C104.157 31.6855 103.829 31.6238 103.523 31.4987C103.217 31.3736 102.94 31.1876 102.708 30.9521C102.476 30.7165 102.294 30.4362 102.173 30.1282C102.052 29.8202 101.995 29.4909 102.005 29.1601ZM102.274 34.2994H106.704V50.5263H102.277L102.274 34.2994Z" fill="#25314C"/>
<path d="M122.231 45.3185C121.791 45.7943 121.255 46.1695 120.657 46.4184C120.06 46.6673 119.416 46.7841 118.769 46.7608C118.198 46.7763 117.631 46.6729 117.102 46.4571C116.574 46.2414 116.095 45.9181 115.698 45.5077C115.301 45.0973 114.993 44.6087 114.793 44.0728C114.594 43.537 114.508 42.9656 114.541 42.3947C114.511 41.826 114.6 41.2573 114.8 40.7244C115.001 40.1916 115.309 39.7061 115.707 39.2987C116.104 38.8913 116.581 38.5707 117.108 38.3572C117.635 38.1437 118.201 38.0419 118.769 38.0582C119.409 38.0373 120.046 38.152 120.639 38.3949C121.232 38.6377 121.767 39.0032 122.209 39.4674C122.517 38.0706 123.062 36.737 123.82 35.5246C122.529 34.6132 121.016 34.0692 119.441 33.9506C117.866 33.832 116.288 34.1431 114.876 34.8509C113.464 35.5587 112.269 36.6367 111.42 37.9702C110.57 39.3038 110.097 40.843 110.051 42.4243C110.051 47.2282 113.805 50.8565 118.769 50.8565C120.593 50.8909 122.379 50.3296 123.857 49.2576C123.094 48.0471 122.544 46.7148 122.231 45.3185Z" fill="#25314C"/>
<path d="M125.398 42.3602C125.397 41.2329 125.622 40.117 126.06 39.0784C126.497 38.0398 127.138 37.0997 127.945 36.3136C128.751 35.5276 129.707 34.9116 130.756 34.5022C131.804 34.0928 132.924 33.8983 134.049 33.9301C138.978 33.9301 142.734 37.5909 142.734 42.3602C142.687 44.6322 141.754 46.7955 140.133 48.3859C138.513 49.9763 136.334 50.8671 134.066 50.8671C131.797 50.8671 129.619 49.9763 127.998 48.3859C126.378 46.7955 125.444 44.6322 125.398 42.3602ZM138.24 42.3948C138.24 41.2854 137.8 40.2215 137.017 39.437C136.234 38.6526 135.172 38.2119 134.064 38.2119C132.956 38.2119 131.894 38.6526 131.111 39.437C130.328 40.2215 129.888 41.2854 129.888 42.3948C129.888 44.9471 131.598 46.7609 134.046 46.7609C134.615 46.7758 135.181 46.6718 135.707 46.4555C136.234 46.2391 136.71 45.9152 137.104 45.5044C137.499 45.0935 137.804 44.6049 137.999 44.0694C138.195 43.534 138.277 42.9637 138.24 42.3948Z" fill="#25314C"/>
<path d="M144.275 42.3602C144.274 41.2328 144.499 40.1166 144.937 39.0779C145.374 38.0391 146.015 37.0989 146.822 36.3128C147.629 35.5268 148.585 34.9109 149.634 34.5016C150.683 34.0923 151.803 33.898 152.928 33.9301C157.857 33.9301 161.613 37.5909 161.613 42.3602C161.562 44.6293 160.627 46.7885 159.007 48.3754C157.386 49.9624 155.211 50.851 152.945 50.851C150.679 50.851 148.503 49.9624 146.883 48.3754C145.262 46.7885 144.327 44.6293 144.276 42.3602H144.275ZM157.118 42.3948C157.118 41.2854 156.678 40.2215 155.895 39.437C155.112 38.6526 154.05 38.2119 152.942 38.2119C151.835 38.2119 150.773 38.6526 149.99 39.437C149.206 40.2215 148.766 41.2854 148.766 42.3948C148.766 44.9471 150.477 46.7609 152.925 46.7609C153.494 46.7757 154.06 46.6716 154.586 46.4552C155.113 46.2388 155.588 45.9149 155.983 45.5041C156.378 45.0933 156.682 44.6046 156.878 44.0693C157.073 43.5339 157.155 42.9636 157.118 42.3948Z" fill="#25314C"/>
<path d="M164.693 34.2994H169.085V35.8434C169.701 35.2289 170.434 34.7455 171.241 34.4223C172.047 34.099 172.911 33.9427 173.78 33.9626C175.432 33.9785 177.011 34.6476 178.173 35.8241C179.335 37.0006 179.985 38.5893 179.983 40.2442V50.5226H175.591V41.2192C175.598 40.7873 175.518 40.3584 175.358 39.9575C175.197 39.5566 174.959 39.1917 174.656 38.884C174.353 38.5762 173.993 38.3319 173.595 38.1651C173.197 37.9983 172.77 37.9124 172.339 37.9124C171.908 37.9124 171.481 37.9983 171.083 38.1651C170.685 38.3319 170.324 38.5762 170.022 38.884C169.719 39.1917 169.48 39.5566 169.32 39.9575C169.159 40.3584 169.08 40.7873 169.086 41.2192V50.5226H164.694L164.693 34.2994Z" fill="#25314C"/>
<path d="M102.005 57.7901H102.996V62.92H102.005V57.7901Z" fill="#8B97B4"/>
<path d="M105.934 60.3511C105.927 60.0027 105.989 59.6565 106.119 59.3331C106.248 59.0097 106.441 58.7158 106.687 58.4691C106.933 58.2224 107.225 58.028 107.548 57.8976C107.87 57.7671 108.216 57.7033 108.564 57.71C108.915 57.701 109.264 57.7629 109.591 57.892C109.918 58.0211 110.215 58.2148 110.465 58.4615L109.795 59.1322C109.595 58.9462 109.353 58.8112 109.09 58.7388C108.827 58.6664 108.55 58.6588 108.283 58.7164C108.016 58.7741 107.767 58.8955 107.558 59.0702C107.348 59.2448 107.183 59.4677 107.077 59.7198C106.972 59.972 106.928 60.2459 106.951 60.5183C106.974 60.7907 107.062 61.0536 107.208 61.2847C107.354 61.5157 107.553 61.708 107.789 61.8453C108.025 61.9826 108.291 62.0608 108.564 62.0733C108.798 62.0859 109.032 62.0473 109.25 61.9601C109.467 61.8729 109.664 61.7392 109.824 61.5684L110.494 62.2399C110.24 62.4893 109.938 62.6845 109.606 62.8137C109.274 62.9429 108.92 63.0033 108.564 62.9914C108.216 62.998 107.871 62.9343 107.548 62.8039C107.226 62.6735 106.933 62.4791 106.687 62.2325C106.442 61.9859 106.248 61.6921 106.119 61.3688C105.99 61.0455 105.927 60.6993 105.934 60.3511Z" fill="#8B97B4"/>
<path d="M112.865 60.3438C112.865 59.8188 113.02 59.3056 113.311 58.869C113.602 58.4323 114.016 58.0919 114.5 57.8906C114.984 57.6894 115.517 57.6363 116.031 57.7381C116.545 57.84 117.018 58.0922 117.389 58.4629C117.76 58.8335 118.013 59.3061 118.117 59.8208C118.22 60.3355 118.168 60.8693 117.969 61.3548C117.769 61.8403 117.431 62.2557 116.996 62.5485C116.561 62.8413 116.049 62.9984 115.525 63C115.175 63.0037 114.828 62.9377 114.504 62.8056C114.18 62.6735 113.886 62.4782 113.639 62.2309C113.391 61.9836 113.195 61.6893 113.062 61.3653C112.929 61.0413 112.862 60.6941 112.865 60.3438ZM117.149 60.3438C117.131 60.0238 117.021 59.7159 116.83 59.4582C116.64 59.2005 116.379 59.0043 116.078 58.8938C115.778 58.7833 115.452 58.7634 115.14 58.8365C114.829 58.9095 114.545 59.0724 114.325 59.305C114.105 59.5376 113.957 59.8296 113.901 60.1452C113.845 60.4607 113.882 60.7858 114.008 61.0804C114.134 61.375 114.344 61.6262 114.611 61.8029C114.878 61.9796 115.19 62.0741 115.51 62.0747C115.735 62.0809 115.958 62.0397 116.166 61.9536C116.373 61.8676 116.561 61.7388 116.715 61.5755C116.87 61.4122 116.988 61.2182 117.063 61.0059C117.138 60.7937 117.167 60.5681 117.149 60.3438Z" fill="#8B97B4"/>
<path d="M121.104 57.7901H121.796L124.361 61.117V57.7901H125.358V62.92H124.645L122.095 59.614V62.92H121.104V57.7901Z" fill="#8B97B4"/>
<path d="M128.07 62.1461L128.725 61.4898C128.865 61.6914 129.052 61.8546 129.271 61.9643C129.49 62.0739 129.733 62.1265 129.978 62.1172C130.496 62.1172 130.824 61.9009 130.824 61.5403C130.824 60.4527 128.405 60.9994 128.405 59.1827C128.405 58.256 129.141 57.7093 130.139 57.7093C130.447 57.7015 130.753 57.7607 131.036 57.8828C131.319 58.005 131.572 58.1871 131.778 58.4168L131.122 59.0731C131.003 58.9224 130.851 58.8008 130.678 58.7174C130.506 58.6341 130.316 58.5912 130.124 58.592C129.665 58.592 129.388 58.7745 129.388 59.1027C129.388 60.0878 131.807 59.5772 131.807 61.4595C131.807 62.4158 131.093 62.9921 129.928 62.9921C129.573 63.011 129.219 62.944 128.895 62.7967C128.572 62.6495 128.289 62.4263 128.07 62.1461Z" fill="#8B97B4"/>
<path d="M138.295 57.7901H139.286V62.0372H141.632V62.92H138.295V57.7901Z" fill="#8B97B4"/>
<path d="M144.491 57.7901H145.482V62.92H144.491V57.7901Z" fill="#8B97B4"/>
<path d="M148.675 57.7901H150.743C150.935 57.7661 151.129 57.7824 151.313 57.838C151.498 57.8937 151.669 57.9874 151.815 58.1131C151.961 58.2389 152.079 58.3939 152.162 58.5681C152.245 58.7424 152.29 58.9321 152.295 59.1251C152.297 59.3411 152.24 59.5536 152.13 59.7391C152.019 59.9247 151.86 60.076 151.669 60.1766C151.914 60.2849 152.122 60.4629 152.267 60.6885C152.412 60.9142 152.487 61.1775 152.484 61.4459C152.48 61.6591 152.43 61.8689 152.34 62.0618C152.249 62.2546 152.118 62.4261 151.957 62.5652C151.795 62.7042 151.607 62.8076 151.403 62.8688C151.199 62.9299 150.984 62.9474 150.773 62.92H148.675V57.7901ZM149.658 58.6V59.8333H150.628C151.035 59.8333 151.304 59.6284 151.304 59.2202C151.304 58.8121 151.035 58.6 150.628 58.6H149.658ZM149.658 60.636V62.1101H150.738C150.934 62.1101 151.121 62.0324 151.259 61.8942C151.397 61.756 151.474 61.5685 151.474 61.373C151.474 61.1775 151.397 60.9901 151.259 60.8518C151.121 60.7136 150.934 60.636 150.738 60.636H149.658Z" fill="#8B97B4"/>
<path d="M155.417 57.7901H157.42C157.629 57.7698 157.84 57.7933 158.04 57.859C158.239 57.9247 158.423 58.0313 158.579 58.172C158.736 58.3126 158.861 58.4843 158.947 58.676C159.034 58.8678 159.08 59.0754 159.082 59.2859C159.089 59.6627 158.949 60.0274 158.691 60.3026C158.434 60.5778 158.08 60.7419 157.704 60.76L159.417 62.9236H158.215L156.576 60.778H156.408V62.9236H155.417V57.7901ZM156.408 58.6V60.0035H157.334C157.432 60.0176 157.532 60.0097 157.626 59.9805C157.721 59.9512 157.808 59.9013 157.881 59.8344C157.954 59.7674 158.011 59.685 158.049 59.5931C158.086 59.5013 158.103 59.4022 158.098 59.3032C158.099 59.2052 158.08 59.1079 158.041 59.0179C158.002 58.9279 157.945 58.8471 157.873 58.7809C157.801 58.7147 157.715 58.6646 157.622 58.6339C157.529 58.6033 157.431 58.5927 157.334 58.6029L156.408 58.6Z" fill="#8B97B4"/>
<path d="M163.646 57.7901H164.454L166.509 62.92H165.456L165.092 61.9637H162.986L162.622 62.92H161.588L163.646 57.7901ZM164.775 61.1321L164.046 59.1907L163.303 61.1321H164.775Z" fill="#8B97B4"/>
<path d="M169.259 57.7901H171.262C171.471 57.7693 171.682 57.7925 171.882 57.8581C172.082 57.9236 172.266 58.0302 172.422 58.1709C172.578 58.3117 172.704 58.4835 172.79 58.6755C172.876 58.8675 172.922 59.0753 172.923 59.2859C172.93 59.6628 172.79 60.0276 172.533 60.3028C172.276 60.578 171.922 60.742 171.546 60.76L173.259 62.9236H172.056L170.417 60.778H170.25V62.9236H169.259V57.7901ZM170.25 58.6V60.0034H171.175C171.273 60.0175 171.373 60.0097 171.468 59.9805C171.562 59.9512 171.649 59.9013 171.723 59.8344C171.796 59.7674 171.853 59.685 171.891 59.5932C171.928 59.5013 171.945 59.4023 171.94 59.3032C171.941 59.2051 171.922 59.1079 171.883 59.0178C171.844 58.9278 171.787 58.8471 171.714 58.7809C171.642 58.7147 171.557 58.6646 171.464 58.6339C171.371 58.6033 171.272 58.5927 171.175 58.6029L170.25 58.6Z" fill="#8B97B4"/>
<path d="M177.159 60.7383L175.308 57.7901H176.453L177.661 59.782L178.871 57.7901H180L178.157 60.6944V62.92H177.159V60.7383Z" fill="#8B97B4"/>
<path d="M21.1613 42.3911C20.9188 42.3916 20.6828 42.3128 20.4891 42.1668C20.2954 42.0207 20.1545 41.8154 20.0878 41.5819L18.3526 35.4987C17.5816 32.7602 16.1221 30.2657 14.1138 28.2536C12.1054 26.2415 9.61528 24.7792 6.88152 24.0064L0.808322 22.2683C0.575573 22.2017 0.370817 22.061 0.225046 21.8675C0.0792737 21.6739 0.000420487 21.438 0.000420487 21.1956C0.000420487 20.9531 0.0792737 20.7172 0.225046 20.5237C0.370817 20.3301 0.575573 20.1894 0.808322 20.1228L6.88152 18.3847C9.61568 17.6123 12.1062 16.1501 14.115 14.138C16.1238 12.1259 17.5836 9.63116 18.3547 6.89246L20.0878 0.809181C20.1542 0.576046 20.2947 0.370951 20.488 0.224937C20.6812 0.0789231 20.9167 -6.10352e-05 21.1588 -6.10352e-05C21.4008 -6.10352e-05 21.6363 0.0789231 21.8295 0.224937C22.0228 0.370951 22.1633 0.576046 22.2298 0.809181L23.965 6.89246C24.7364 9.63135 26.1966 12.1262 28.2057 14.1383C30.2149 16.1504 32.7058 17.6125 35.4403 18.3847L41.5135 20.1228C41.7256 20.2104 41.907 20.3591 42.0346 20.5501C42.1622 20.7411 42.2304 20.9657 42.2304 21.1956C42.2304 21.4254 42.1622 21.65 42.0346 21.841C41.907 22.032 41.7256 22.1807 41.5135 22.2683L35.4403 24.0064C32.7062 24.779 30.2157 26.2412 28.207 28.2533C26.1982 30.2654 24.7384 32.76 23.9671 35.4987L22.2319 41.5819C22.1654 41.815 22.025 42.02 21.8318 42.166C21.6387 42.312 21.4033 42.3911 21.1613 42.3911ZM6.67128 42.1481L7.19184 40.3227C7.42323 39.5009 7.86129 38.7522 8.46412 38.1484C9.06694 37.5445 9.81436 37.1058 10.6349 36.874L12.4579 36.3526C12.5216 36.3263 12.576 36.2816 12.6143 36.2243C12.6526 36.167 12.6731 36.0995 12.6731 36.0305C12.6731 35.9616 12.6526 35.8941 12.6143 35.8368C12.576 35.7795 12.5216 35.7348 12.4579 35.7085L10.6349 35.1871C9.81446 34.9551 9.06714 34.5163 8.46434 33.9125C7.86154 33.3087 7.42342 32.5601 7.19184 31.7384L6.67128 29.9123C6.65104 29.8426 6.60876 29.7813 6.55078 29.7377C6.49281 29.6941 6.42229 29.6706 6.3498 29.6706C6.27732 29.6706 6.20679 29.6941 6.14882 29.7377C6.09085 29.7813 6.04856 29.8426 6.02832 29.9123L5.50776 31.7384C5.27618 32.5601 4.83806 33.3087 4.23526 33.9125C3.63247 34.5163 2.88515 34.9551 2.06472 35.1871L0.242402 35.7085C0.172388 35.7284 0.11075 35.7705 0.0668543 35.8287C0.022959 35.8868 -0.000793457 35.9577 -0.000793457 36.0305C-0.000793457 36.1034 0.022959 36.1743 0.0668543 36.2324C0.11075 36.2906 0.172388 36.3327 0.242402 36.3526L2.06472 36.874C2.88524 37.1058 3.63266 37.5445 4.23549 38.1484C4.83831 38.7522 5.27637 39.5009 5.50776 40.3227L6.02832 42.1481C6.04811 42.2182 6.09022 42.28 6.14825 42.3239C6.20627 42.3679 6.27704 42.3917 6.3498 42.3917C6.42256 42.3917 6.49333 42.3679 6.55135 42.3239C6.60938 42.28 6.65149 42.2182 6.67128 42.1481ZM38.239 8.30096L38.5853 7.08646C38.739 6.53964 39.0303 6.04153 39.4314 5.63983C39.8324 5.23813 40.3297 4.94632 40.8756 4.79234L42.0881 4.44545C42.1305 4.42802 42.1668 4.39835 42.1923 4.36021C42.2179 4.32207 42.2315 4.27718 42.2315 4.23125C42.2315 4.18532 42.2179 4.14044 42.1923 4.10229C42.1668 4.06415 42.1305 4.03448 42.0881 4.01706L40.8756 3.67016C40.3299 3.51581 39.8328 3.22387 39.4318 2.82223C39.0308 2.42059 38.7394 1.92267 38.5853 1.37604L38.239 0.161548C38.2256 0.115049 38.1976 0.0741574 38.159 0.0450498C38.1204 0.0159421 38.0734 0.000199339 38.0251 0.000199339C37.9768 0.000199339 37.9298 0.0159421 37.8913 0.0450498C37.8527 0.0741574 37.8246 0.115049 37.8113 0.161548L37.465 1.37604C37.3112 1.92286 37.0199 2.42098 36.6189 2.82267C36.2178 3.22437 35.7206 3.51619 35.1746 3.67016L33.9622 4.01706C33.9157 4.03041 33.8749 4.05853 33.8459 4.09717C33.8168 4.13581 33.8011 4.18287 33.8011 4.23125C33.8011 4.27963 33.8168 4.32669 33.8459 4.36533C33.8749 4.40398 33.9157 4.4321 33.9622 4.44545L35.1746 4.79234C35.7206 4.94632 36.2178 5.23813 36.6189 5.63983C37.0199 6.04153 37.3112 6.53964 37.465 7.08646L37.8113 8.30096C37.8246 8.34746 37.8527 8.38835 37.8913 8.41745C37.9298 8.44656 37.9768 8.4623 38.0251 8.4623C38.0734 8.4623 38.1204 8.44656 38.159 8.41745C38.1976 8.38835 38.2256 8.34746 38.239 8.30096Z" fill="url(#paint0_linear_2_3196)"/>
</g>
<defs>
    <linearGradient id="paint0_linear_2_3196" x1="46.3066" y1="21.1952" x2="-2.904" y2="21.1952" gradientUnits="userSpaceOnUse">
        <stop stop-color="#C76EC4"/>
        <stop offset="1" stop-color="#396CE8"/>
    </linearGradient>
    <clipPath id="clip0_2_3196">
        <rect width="180" height="63" fill="white"/>
    </clipPath>
    </defs>
</svg>
