<svg width="24" height="24" viewBox="0 0 24 24" fill="none" xmlns="http://www.w3.org/2000/svg">
<path d="M6.29297 12.707C5.90197 12.316 5.90197 11.684 6.29297 11.293C6.68397 10.902 7.31603 10.902 7.70703 11.293L11 14.5859V3C11 2.448 11.447 2 12 2C12.553 2 13 2.448 13 3V14.5859L16.293 11.293C16.684 10.902 17.316 10.902 17.707 11.293C18.098 11.684 18.098 12.316 17.707 12.707L12.708 17.7061C12.615 17.7991 12.5051 17.8721 12.3821 17.9231C12.2601 17.9741 12.13 18 12 18C11.87 18 11.7399 17.9731 11.6179 17.9231C11.4949 17.8721 11.385 17.7991 11.292 17.7061L6.29297 12.707ZM18 20H6C5.447 20 5 20.448 5 21C5 21.552 5.447 22 6 22H18C18.553 22 19 21.552 19 21C19 20.448 18.553 20 18 20Z" fill="#F8F9FB"/>
</svg>
