<svg width="24" height="24" viewBox="0 0 24 24" fill="none" xmlns="http://www.w3.org/2000/svg">
<path d="M10.2 11.52C11.19 11.05 11.7 10.33 11.7 9.22C11.7 7.03 10.07 6.48999 8.17999 6.48999H2.99001V17.49H8.32001C10.32 17.49 12.2 16.53 12.2 14.3C12.2 12.92 11.55 11.9 10.19 11.52H10.2ZM5.42999 8.10001H7.71001C8.59001 8.10001 9.38 8.35 9.38 9.37C9.38 10.31 8.75999 10.69 7.89999 10.69H5.42999V8.10999V8.10001ZM8.03 15.4H5.42999V12.35H8.08C9.15 12.35 9.83 12.8 9.83 13.93C9.83 15.06 9.02 15.4 8.03 15.4ZM19.23 7.88H14.74V6.79001H19.23V7.88ZM20.99 13.39C20.99 11.02 19.6 9.04001 17.09 9.04001C14.58 9.04001 12.99 10.88 12.99 13.28C12.99 15.68 14.56 17.49 17.09 17.49C19 17.49 20.24 16.63 20.84 14.8H18.9C18.69 15.48 17.83 15.85 17.16 15.85C15.87 15.85 15.19 15.09 15.19 13.81H20.97C20.97 13.68 20.99 13.54 20.99 13.4V13.39ZM15.19 12.41C15.26 11.36 15.96 10.7 17.02 10.7C18.08 10.7 18.68 11.35 18.78 12.41H15.2H15.19Z" fill="#25314C"/>
</svg>
