<svg width="20" height="20" viewBox="0 0 20 20" fill="none" xmlns="http://www.w3.org/2000/svg">
<path d="M15 4.16669H5C3.33333 4.16669 2.5 5.00002 2.5 6.66669V14.1667C2.5 15.8334 3.33333 16.6667 5 16.6667H15C16.6667 16.6667 17.5 15.8334 17.5 14.1667V6.66669C17.5 5.00002 16.6667 4.16669 15 4.16669ZM14.9508 8.00502L10.8575 10.9817C10.6009 11.1683 10.3 11.2617 10 11.2617C9.7 11.2617 9.39829 11.1684 9.14246 10.9825L5.04923 8.00502C4.77007 7.80252 4.70837 7.41085 4.9117 7.13169C5.1142 6.85335 5.50325 6.79002 5.78491 6.99419L9.87834 9.97085C9.95167 10.0234 10.0491 10.0242 10.1225 9.97085L14.2159 6.99419C14.4967 6.79002 14.8866 6.85335 15.0891 7.13169C15.2924 7.41169 15.2299 7.80252 14.9508 8.00502Z" fill="#25314C"/>
</svg>
