<svg width="64" height="64" viewBox="0 0 64 64" fill="none" xmlns="http://www.w3.org/2000/svg">
<path d="M32.0696 63.9992C31.7022 63.9998 31.3446 63.8809 31.051 63.6604C30.7574 63.44 30.5439 63.13 30.4427 62.7775L27.8132 53.5934C26.6448 49.4591 24.4331 45.6931 21.3896 42.6554C18.3461 39.6177 14.5725 37.4099 10.4296 36.2433L1.22616 33.6192C0.873441 33.5187 0.563149 33.3062 0.342243 33.014C0.121336 32.7218 0.00183964 32.3657 0.00183964 31.9996C0.00183964 31.6336 0.121336 31.2775 0.342243 30.9853C0.563149 30.693 0.873441 30.4806 1.22616 30.38L10.4296 27.756C14.5731 26.5898 18.3473 24.3823 21.3915 21.3446C24.4356 18.3068 26.6478 14.5405 27.8165 10.4058L30.4427 1.22174C30.5435 0.869765 30.7564 0.560127 31.0493 0.339686C31.3421 0.119244 31.699 0 32.0658 0C32.4326 0 32.7894 0.119244 33.0823 0.339686C33.3751 0.560127 33.588 0.869765 33.6888 1.22174L36.3184 10.4058C37.4875 14.5408 39.7002 18.3073 42.745 21.345C45.7897 24.3827 49.5645 26.5901 53.7084 27.756L62.9119 30.38C63.2334 30.5123 63.5082 30.7368 63.7016 31.0252C63.895 31.3135 63.9983 31.6527 63.9983 31.9996C63.9983 32.3466 63.895 32.6857 63.7016 32.9741C63.5082 33.2624 63.2334 33.487 62.9119 33.6192L53.7084 36.2433C49.5651 37.4096 45.7909 39.6172 42.7468 42.6549C39.7027 45.6926 37.4905 49.4588 36.3216 53.5934L33.6921 62.7775C33.5913 63.1294 33.3785 63.4389 33.0857 63.6593C32.793 63.8798 32.4363 63.999 32.0696 63.9992ZM10.111 63.6322L10.8999 60.8765C11.2506 59.6356 11.9144 58.5054 12.828 57.5938C13.7415 56.6821 14.8742 56.0197 16.1176 55.6698L18.8803 54.8826C18.9768 54.8429 19.0592 54.7755 19.1173 54.6889C19.1753 54.6024 19.2063 54.5006 19.2063 54.3964C19.2063 54.2923 19.1753 54.1905 19.1173 54.1039C19.0592 54.0174 18.9768 53.95 18.8803 53.9103L16.1176 53.1231C14.8743 52.7729 13.7418 52.1103 12.8283 51.1987C11.9148 50.2872 11.2509 49.157 10.8999 47.9164L10.111 45.1595C10.0804 45.0543 10.0163 44.9618 9.92844 44.896C9.84059 44.8302 9.73371 44.7946 9.62387 44.7946C9.51402 44.7946 9.40714 44.8302 9.31929 44.896C9.23144 44.9618 9.16736 45.0543 9.13669 45.1595L8.34782 47.9164C7.99687 49.157 7.33293 50.2872 6.41944 51.1987C5.50594 52.1103 4.37343 52.7729 3.13014 53.1231L0.368545 53.9103C0.262444 53.9402 0.169035 54.0039 0.102515 54.0916C0.0359952 54.1794 0 54.2864 0 54.3964C0 54.5064 0.0359952 54.6135 0.102515 54.7012C0.169035 54.789 0.262444 54.8526 0.368545 54.8826L3.13014 55.6698C4.37358 56.0197 5.50624 56.6821 6.41977 57.5938C7.33331 58.5054 7.99716 59.6356 8.34782 60.8765L9.13669 63.6322C9.16668 63.7381 9.2305 63.8313 9.31843 63.8977C9.40636 63.9641 9.51361 64 9.62387 64C9.73413 64 9.84137 63.9641 9.9293 63.8977C10.0172 63.8313 10.081 63.7381 10.111 63.6322ZM57.9496 12.5323L58.4744 10.6987C58.7074 9.87318 59.1488 9.12115 59.7566 8.5147C60.3643 7.90825 61.1179 7.46769 61.9452 7.23522L63.7826 6.71151C63.8469 6.6852 63.9019 6.64041 63.9406 6.58282C63.9793 6.52524 64 6.45747 64 6.38813C64 6.31879 63.9793 6.25102 63.9406 6.19344C63.9019 6.13586 63.8469 6.09106 63.7826 6.06476L61.9452 5.54104C61.1182 5.30801 60.3649 4.86725 59.7573 4.26089C59.1496 3.65452 58.7079 2.9028 58.4744 2.07754L57.9496 0.243986C57.9294 0.173785 57.8868 0.11205 57.8284 0.0681051C57.7699 0.0241604 57.6987 0.000393094 57.6255 0.000393094C57.5523 0.000393094 57.4811 0.0241604 57.4227 0.0681051C57.3642 0.11205 57.3217 0.173785 57.3015 0.243986L56.7766 2.07754C56.5437 2.90309 56.1022 3.65511 55.4945 4.26156C54.8867 4.86802 54.1331 5.30858 53.3058 5.54104L51.4684 6.06476C51.398 6.08491 51.3362 6.12736 51.2921 6.1857C51.2481 6.24404 51.2243 6.31509 51.2243 6.38813C51.2243 6.46117 51.2481 6.53222 51.2921 6.59056C51.3362 6.6489 51.398 6.69135 51.4684 6.71151L53.3058 7.23522C54.1331 7.46769 54.8867 7.90825 55.4945 8.5147C56.1022 9.12115 56.5437 9.87318 56.7766 10.6987L57.3015 12.5323C57.3217 12.6025 57.3642 12.6642 57.4227 12.7082C57.4811 12.7521 57.5523 12.7759 57.6255 12.7759C57.6987 12.7759 57.7699 12.7521 57.8284 12.7082C57.8868 12.6642 57.9294 12.6025 57.9496 12.5323Z" fill="white"/>
</svg>
