<svg width="56" height="56" viewBox="0 0 56 56" fill="none" xmlns="http://www.w3.org/2000/svg">
<path opacity="0.4" d="M27.9998 51.3333C15.1198 51.3333 4.6665 40.88 4.6665 28C4.6665 15.12 15.1198 4.66667 27.9998 4.66667C40.8798 4.66667 51.3332 15.12 51.3332 28C51.3332 40.88 40.8798 51.3333 27.9998 51.3333Z" fill="#25314C"/>
<path d="M46.6667 16.3333C44.4034 16.3333 42.5834 14.6067 42.5834 12.0867C42.5834 8.95998 46.6667 4.66667 46.6667 4.66667C46.6667 4.66667 50.75 8.95998 50.75 12.0867C50.75 14.5833 48.93 16.3333 46.6667 16.3333ZM20.37 33.32C19.4833 32.97 18.4801 33.67 18.7134 34.6033C19.6934 38.85 23.4734 42 28.0234 42C32.5734 42 36.3534 38.85 37.3334 34.6033C37.5434 33.67 36.5633 32.9467 35.6766 33.32C30.59 35.35 25.5033 35.35 20.3933 33.32H20.37ZM39.2467 23.9167C38.5234 23.9167 37.8467 23.4733 37.59 22.7267C37.3567 22.05 36.68 21.5833 35.9566 21.5833C35.2333 21.5833 34.5567 22.05 34.3234 22.7267C34.0201 23.6367 33.0167 24.1267 32.1067 23.8C31.1967 23.4733 30.7067 22.4933 31.0333 21.5833C31.7567 19.4833 33.74 18.06 35.98 18.06C38.22 18.06 40.2033 19.46 40.9266 21.5833C41.23 22.4933 40.7634 23.4967 39.8534 23.8C39.6667 23.87 39.4801 23.8933 39.2701 23.8933L39.2467 23.9167ZM23.3334 23.9167C22.61 23.9167 21.9333 23.4733 21.6766 22.7267C21.4433 22.05 20.7668 21.5833 20.0434 21.5833C19.3201 21.5833 18.6434 22.05 18.4101 22.7267C18.1067 23.6367 17.1034 24.1267 16.1934 23.8C15.2834 23.4733 14.7933 22.4933 15.12 21.5833C15.8433 19.4833 17.8266 18.06 20.0666 18.06C22.3066 18.06 24.29 19.46 25.0133 21.5833C25.3166 22.4933 24.85 23.4967 23.94 23.8C23.7534 23.87 23.5667 23.8933 23.3567 23.8933L23.3334 23.9167Z" fill="#25314C"/>
</svg>
